<?xml version="1.0" standalone="no"?>
<!DOCTYPE svg PUBLIC "-//W3C//DTD SVG 20010904//EN"
 "http://www.w3.org/TR/2001/REC-SVG-20010904/DTD/svg10.dtd">
<svg version="1.0" xmlns="http://www.w3.org/2000/svg"
 width="640.000000pt" height="1280.000000pt" viewBox="0 0 640.000000 1280.000000"
 preserveAspectRatio="xMidYMid meet">
<metadata>
Created by potrace 1.15, written by Peter Selinger 2001-2017
</metadata>
<g transform="translate(0.000000,1280.000000) scale(0.100000,-0.100000)"
fill="#000000" stroke="none">
<path d="M1133 12785 c-191 -42 -388 -220 -507 -459 -319 -644 -210 -1719 239
-2360 58 -83 195 -229 267 -284 107 -82 246 -145 357 -161 l44 -6 17 -87 c10
-48 21 -91 24 -97 4 -6 -24 -57 -62 -113 -179 -267 -318 -520 -529 -955 -61
-128 -141 -289 -178 -357 l-65 -124 50 -226 c110 -494 170 -882 191 -1241 15
-243 13 -256 -97 -519 -81 -197 -95 -259 -71 -318 18 -42 44 -58 154 -94 86
-28 140 -62 238 -151 77 -70 108 -84 132 -60 22 22 19 94 -11 272 -56 332 -78
414 -108 415 -14 0 -69 54 -83 80 -10 19 -18 92 -25 226 -25 489 -71 812 -192
1363 l-52 235 66 125 c36 69 117 232 178 361 166 349 320 626 472 854 l46 68
16 -73 c50 -219 71 -517 62 -885 -9 -367 -18 -523 -91 -1489 -58 -777 -63
-1106 -26 -1875 33 -675 38 -1619 11 -2085 -45 -796 -151 -1257 -308 -1345
-42 -24 -65 -59 -56 -85 10 -26 -85 -77 -285 -152 -88 -33 -121 -68 -103 -107
6 -14 44 -47 84 -74 71 -48 292 -241 284 -249 -2 -2 -39 -12 -83 -23 -103 -24
-168 -50 -152 -60 24 -15 199 -20 409 -11 118 4 217 7 219 5 2 -2 -13 -11 -33
-20 -20 -10 -36 -21 -36 -24 0 -4 30 -2 68 3 37 5 137 17 222 27 85 10 141 18
123 19 -17 0 -93 -6 -168 -14 -76 -9 -140 -14 -142 -12 -2 3 15 7 37 11 45 7
181 101 158 109 -7 2 64 10 157 18 94 7 160 15 147 17 -26 4 -409 -25 -454
-34 -16 -3 -28 -1 -28 4 0 5 48 15 108 22 197 24 427 58 404 59 -13 1 -78 -6
-144 -15 -65 -8 -125 -13 -131 -10 -7 2 2 5 18 5 18 1 45 13 65 30 35 28 67
36 310 74 25 4 25 4 -2 6 -28 1 -607 -96 -760 -127 -49 -10 -88 -15 -88 -12 0
13 97 88 146 113 28 14 89 35 135 47 109 27 138 39 150 61 13 26 -2 52 -45 77
-41 24 -224 106 -354 158 -52 20 -96 43 -99 50 -3 8 13 32 36 54 71 70 118
161 166 327 71 243 116 577 147 1093 17 275 14 1470 -5 1895 -7 176 -12 322
-11 324 2 2 18 -7 36 -20 34 -24 105 -32 139 -16 13 7 20 -5 37 -65 77 -263
125 -515 164 -868 19 -176 16 -755 -6 -955 -53 -499 -133 -885 -302 -1470 -31
-104 -58 -213 -61 -242 -5 -48 -3 -54 24 -82 33 -32 99 -55 204 -70 42 -6 104
-27 175 -59 316 -143 548 -174 719 -93 54 25 129 85 238 189 20 19 37 38 37
41 0 3 -78 6 -173 6 -139 1 -191 5 -275 23 -129 28 -303 81 -455 138 -65 24
-122 44 -126 44 -4 0 -28 -15 -52 -34 -40 -31 -91 -53 -162 -70 -33 -8 -38
-34 53 289 153 539 240 982 282 1440 16 180 16 740 0 905 -35 351 -105 709
-191 973 l-28 87 24 83 c30 104 58 270 77 467 98 990 24 2444 -164 3217 l-27
111 51 16 c190 59 327 70 752 62 478 -8 604 5 769 84 78 37 85 44 192 172 210
253 490 622 865 1138 l163 225 186 63 c241 80 340 97 522 87 l137 -7 0 -33 c0
-31 -3 -34 -62 -55 -80 -29 -138 -84 -138 -130 0 -120 268 -161 465 -71 95 44
126 93 97 152 -21 42 -71 68 -153 79 -34 5 -63 11 -65 13 -3 3 -7 20 -10 39
-6 33 -3 36 38 61 234 137 333 503 163 603 -35 20 -57 25 -112 25 -37 0 -79
-4 -93 -9 -14 -5 -37 -12 -52 -16 l-28 -6 0 63 c0 59 2 64 31 81 164 97 279
359 279 635 0 75 -2 84 -25 105 -44 41 -105 51 -295 51 -175 -1 -256 -11 -391
-51 -38 -12 -47 -18 -43 -32 5 -13 4 -14 -4 -3 -9 12 -15 12 -43 1 -18 -8 -48
-27 -66 -43 -41 -36 -42 -60 -8 -193 74 -284 203 -457 379 -508 l41 -12 12
-74 c12 -69 12 -76 -4 -88 -10 -7 -65 -43 -123 -81 -136 -89 -316 -235 -334
-269 -23 -43 -74 -86 -176 -147 -177 -106 -202 -130 -355 -344 -299 -417 -695
-938 -900 -1185 -106 -128 -150 -152 -350 -192 -22 -4 -258 -8 -525 -9 -460
-1 -491 -2 -599 -23 -62 -13 -137 -31 -166 -41 l-53 -19 -47 137 c-39 111 -91
311 -82 316 1 1 23 9 49 19 156 58 315 220 423 432 200 392 242 1030 104 1579
-77 306 -212 607 -361 810 -68 92 -207 230 -286 284 -180 122 -355 164 -529
126z m205 -150 c55 -7 145 -45 220 -92 82 -52 228 -203 301 -312 54 -81 131
-220 131 -235 0 -3 -16 4 -35 15 -50 30 -143 36 -202 14 -63 -24 -126 -84
-154 -148 -33 -74 -33 -196 0 -291 26 -76 85 -156 146 -198 86 -59 211 -57
295 3 44 32 100 111 100 141 0 10 4 18 8 18 11 0 58 -243 71 -360 48 -432 -9
-850 -154 -1137 -223 -441 -583 -505 -930 -166 -207 201 -389 572 -476 970
-77 349 -80 766 -7 1078 76 329 236 576 432 669 56 27 142 45 186 40 14 -2 45
-6 68 -9z m4447 -318 c22 -8 40 -18 40 -23 0 -17 -70 -55 -145 -79 -123 -38
-285 -58 -430 -52 -143 5 -212 25 -189 53 31 37 167 84 299 103 41 6 86 13
100 15 53 10 286 -3 325 -17z m37 -178 l-7 -54 -60 5 c-203 17 -530 -7 -624
-46 -18 -8 -35 -14 -37 -14 -5 0 -26 81 -22 85 2 2 21 0 43 -5 54 -13 271 -12
372 0 103 13 221 43 287 73 28 13 52 21 54 17 1 -3 -1 -31 -6 -61z m-149 -106
c53 -3 97 -9 97 -13 0 -11 -115 -29 -255 -42 -130 -11 -345 -4 -345 12 0 4 51
15 113 24 168 24 252 29 390 19z m101 -105 c-20 -67 -82 -167 -133 -219 -81
-80 -167 -106 -254 -75 -61 22 -117 67 -165 131 -43 58 -97 154 -90 160 2 2
30 -2 63 -7 76 -13 387 -3 480 16 104 20 108 20 99 -6z m-3859 -42 c42 -27 82
-92 101 -162 32 -119 -8 -219 -97 -246 -57 -17 -124 19 -166 91 -97 163 -44
352 94 338 24 -3 54 -12 68 -21z m3604 -383 c-1 -57 -1 -58 -10 -18 -11 55
-11 75 1 75 6 0 9 -25 9 -57z m136 -825 c71 8 122 5 150 -8 95 -47 -55 -133
-235 -134 -88 0 -149 14 -171 40 -10 12 -8 19 11 39 29 31 112 64 118 47 2 -7
17 -12 33 -12 l29 0 1 83 1 82 17 -70 c16 -69 17 -70 46 -67z m-3739 -3258
c22 -342 26 -1187 6 -1465 -28 -381 -68 -672 -99 -707 -9 -10 -12 -25 -8 -39
5 -14 3 -19 -3 -15 -17 10 -40 130 -53 271 -21 235 -8 548 71 1600 21 292 42
582 46 645 l8 115 7 -65 c4 -36 15 -189 25 -340z m67 -6547 c-7 -2 -19 -2 -25
0 -7 3 -2 5 12 5 14 0 19 -2 13 -5z m-46 -9 c-3 -3 -12 -4 -19 -1 -8 3 -5 6 6
6 11 1 17 -2 13 -5z m-90 -50 c-3 -3 -12 -4 -19 -1 -8 3 -5 6 6 6 11 1 17 -2
13 -5z"/>
<path d="M1050 11825 c-61 -20 -110 -62 -145 -126 -52 -96 -46 -260 15 -379
29 -57 94 -123 146 -150 73 -37 170 -35 242 4 122 68 171 219 126 391 -51 197
-222 313 -384 260z m127 -126 c41 -15 81 -57 111 -114 22 -42 26 -64 26 -137
1 -98 -13 -128 -75 -162 -54 -29 -103 -16 -161 44 -54 56 -78 121 -78 209 0
68 23 118 69 148 37 25 65 28 108 12z"/>
<path d="M1710 10587 c-97 -30 -177 -65 -270 -117 -82 -47 -225 -147 -252
-177 -17 -19 -17 -21 7 -43 13 -12 33 -28 44 -34 10 -6 38 -25 62 -42 106 -74
256 -103 391 -75 72 15 180 68 245 120 55 44 113 123 113 153 0 10 5 18 10 18
19 0 10 66 -15 116 -37 74 -80 98 -179 101 -62 2 -99 -3 -156 -20z m239 -83
c74 -62 35 -160 -97 -247 -125 -84 -268 -110 -394 -73 -56 16 -149 71 -155 92
-4 13 150 115 245 163 107 54 229 91 304 91 57 0 71 -4 97 -26z"/>
<path d="M2498 963 c6 -2 18 -2 25 0 6 3 1 5 -13 5 -14 0 -19 -2 -12 -5z"/>
<path d="M2413 953 c9 -2 25 -2 35 0 9 3 1 5 -18 5 -19 0 -27 -2 -17 -5z"/>
<path d="M2343 943 c9 -2 23 -2 30 0 6 3 -1 5 -18 5 -16 0 -22 -2 -12 -5z"/>
<path d="M2368 873 c6 -2 18 -2 25 0 6 3 1 5 -13 5 -14 0 -19 -2 -12 -5z"/>
<path d="M2293 863 c9 -2 23 -2 30 0 6 3 -1 5 -18 5 -16 0 -22 -2 -12 -5z"/>
<path d="M2213 853 c9 -2 25 -2 35 0 9 3 1 5 -18 5 -19 0 -27 -2 -17 -5z"/>
<path d="M2318 813 c7 -3 16 -2 19 1 4 3 -2 6 -13 5 -11 0 -14 -3 -6 -6z"/>
<path d="M2208 803 c12 -2 30 -2 40 0 9 3 -1 5 -23 4 -22 0 -30 -2 -17 -4z"/>
<path d="M2208 693 c6 -2 18 -2 25 0 6 3 1 5 -13 5 -14 0 -19 -2 -12 -5z"/>
<path d="M2098 683 c6 -2 18 -2 25 0 6 3 1 5 -13 5 -14 0 -19 -2 -12 -5z"/>
<path d="M2013 673 c9 -2 25 -2 35 0 9 3 1 5 -18 5 -19 0 -27 -2 -17 -5z"/>
</g>
</svg>
